<?xml version="1.0" encoding="UTF-8" standalone="no"?>
<!-- Uploaded to: SVG Repo, www.svgrepo.com, Transformed by: SVG Repo Mixer Tools -->

<svg
   height="800px"
   width="800px"
   version="1.1"
   id="Capa_1"
   viewBox="0 0 202.219 202.219"
   xml:space="preserve"
   fill="#ffffff"
   transform="matrix(-1, 0, 0, 1, 0, 0)"
   sodipodi:docname="backClouds.svg"
   inkscape:version="1.3.2 (091e20e, 2023-11-25, custom)"
   xmlns:inkscape="http://www.inkscape.org/namespaces/inkscape"
   xmlns:sodipodi="http://sodipodi.sourceforge.net/DTD/sodipodi-0.dtd"
   xmlns="http://www.w3.org/2000/svg"
   xmlns:svg="http://www.w3.org/2000/svg"><defs
   id="defs1" /><sodipodi:namedview
   id="namedview1"
   pagecolor="#000000"
   bordercolor="#000000"
   borderopacity="0.24705882"
   inkscape:showpageshadow="2"
   inkscape:pageopacity="0.0"
   inkscape:pagecheckerboard="0"
   inkscape:deskcolor="#d1d1d1"
   inkscape:zoom="0.85125"
   inkscape:cx="400"
   inkscape:cy="423.49486"
   inkscape:window-width="1350"
   inkscape:window-height="861"
   inkscape:window-x="248"
   inkscape:window-y="3"
   inkscape:window-maximized="0"
   inkscape:current-layer="Capa_1" />

<g
   id="SVGRepo_bgCarrier"
   stroke-width="0" />

<g
   id="SVGRepo_tracerCarrier"
   stroke-linecap="round"
   stroke-linejoin="round" />

<g
   id="SVGRepo_iconCarrier"> <g
   id="g1"> <path
   style="fill:#ffffff;"
   d="M202.219,95.172c0-16.949-15.275-30.513-32.664-27.489c-6.181-10.017-18.399-15.3-30.12-12.515 c-4.985-8.686-14.119-14.018-24.179-14.018c-9.87,0-18.492,5.193-23.449,12.984c-6.08-3.951-13.235-6.216-20.807-6.216 c-20.607,0-37.46,16.341-38.276,36.934C13.961,87.582,0,103.608,0,122.758c0,21.122,17.189,38.312,38.315,38.312h115.289 c21.122,0,38.312-17.189,38.312-38.312c0-1.929-0.197-3.815-0.476-5.669C197.975,111.989,202.219,104.091,202.219,95.172z M153.604,157.494H38.315c-19.154,0-34.736-15.582-34.736-34.733c0-17.844,13.367-32.696,31.089-34.547l1.593-0.372v-1.61 c0-19.154,15.582-34.736,34.74-34.736c13.127,0,24.988,7.297,30.957,19.039l0.673,1.321l1.417-0.412 c3.196-0.927,6.453-1.396,9.681-1.396c12.615,0,24.261,6.871,30.392,17.934l0.651,1.167l1.299-0.286 c22.278-4.914,42.27,12.279,42.27,33.895C188.337,141.912,172.758,157.494,153.604,157.494z M190.638,113.135 c-4.871-18.639-23.438-31.88-44.052-28.03c-6.914-11.531-19.383-18.635-32.861-18.635c-3.096,0-6.199,0.387-9.269,1.152 c-2.509-4.52-5.837-8.385-9.738-11.474c4.309-6.836,11.871-11.42,20.539-11.42c9.19,0,17.497,5.111,21.677,13.338l0.673,1.321 l1.424-0.412c10.966-3.192,22.668,1.854,28.058,11.578l0.651,1.167l1.299-0.286c15.657-3.429,29.601,8.604,29.601,23.739 C198.641,102.301,195.545,108.69,190.638,113.135z"
   id="path1" /> </g> </g>

<path
   style="fill:#f9f9f9;stroke-width:1.17474"
   d="M 127.05465,620.15875 C 114.26945,617.83751 101.91554,613.49486 88.743599,606.69167 74.492428,599.33104 64.61665,591.8683 52.813324,579.54052 29.300385,554.98284 16.741494,525.52975 15.077526,491.04258 12.164723,430.67228 51.37304,374.56404 109.83847,355.4369 c 5.52664,-1.80805 30.5309,-7.12559 33.50614,-7.12559 0.11134,0 0.5278,-5.68669 0.92548,-12.63708 2.00048,-34.96362 14.31478,-63.71647 37.794,-88.24578 11.07529,-11.57062 18.8557,-17.74917 31.79655,-25.2502 32.95339,-19.10107 75.25935,-22.86802 111.86609,-9.96062 12.98252,4.57758 19.57726,7.88346 31.67395,15.87786 17.2067,11.37147 34.96011,31.19146 44.01976,49.14386 1.95635,3.87666 3.71142,7.2215 3.90017,7.43298 0.18876,0.21149 4.22303,-0.68511 8.96504,-1.99244 47.06862,-12.97635 96.82312,0.44467 132.04157,35.61753 8.80842,8.79701 23.74928,28.64279 25.48588,33.85261 0.29333,0.87997 2.5723,0.83183 7.61845,-0.16093 15.08856,-2.9685 27.20984,-3.73243 39.99639,-2.52075 62.46344,5.91914 112.30606,52.10669 123.11197,114.08387 2.73967,15.71332 1.76058,39.92918 -2.22766,55.09683 -12.96476,49.30625 -49.41676,85.85212 -99.43052,99.68656 l -11.21947,3.10345 -246.69603,0.19643 c -208.97677,0.16639 -248.10507,-0.0594 -255.91158,-1.47674 z"
   id="path2"
   transform="scale(0.25277375)" /><path
   style="fill:#f9f9f9;stroke-width:1.17474"
   d="m 754.31421,444.64023 c -0.35649,-0.96916 -2.05116,-5.72687 -3.76596,-10.57268 -11.65386,-32.9326 -38.11672,-64.21978 -68.85815,-81.41136 -25.66214,-14.3511 -57.66347,-21.19059 -86.39889,-18.46563 -6.94027,0.65813 -13.18243,1.19705 -13.87145,1.19759 -0.68903,5.4e-4 -4.09398,-4.09593 -7.56653,-9.10327 -8.49446,-12.24879 -25.38626,-28.83428 -37.58319,-36.90167 -25.98404,-17.18655 -49.58145,-25.05365 -79.295,-26.43604 -13.9507,-0.64904 -18.18907,-0.35603 -39.35389,2.72065 -4.04354,0.58779 -4.2172,0.4357 -10.48984,-9.18705 -3.50803,-5.3816 -11.97792,-15.4697 -18.82198,-22.41798 l -12.44373,-12.63325 2.85796,-3.81315 c 14.32041,-19.10659 33.82616,-32.09012 56.2729,-37.45671 13.54916,-3.23935 35.33976,-2.6278 47.82292,1.34213 25.31548,8.05091 44.39239,23.57582 57.01398,46.39834 2.14392,3.87665 3.9821,7.18133 4.08484,7.34374 0.10276,0.16241 4.37112,-0.80102 9.48527,-2.14095 12.09708,-3.16951 31.54057,-3.40512 43.95336,-0.53262 24.76769,5.7316 49.51624,23.54883 61.10675,43.9926 3.98691,7.03228 4.19657,7.20053 8.20309,6.58291 2.26138,-0.34859 11.00675,-0.96031 19.43415,-1.35935 18.61005,-0.88121 29.2849,1.32051 45.76576,9.43932 50.15272,24.70625 68.473,88.12578 38.95367,134.84634 -7.26179,11.49332 -15.64115,20.91948 -16.50604,18.56809 z"
   id="path3"
   transform="scale(0.25277375)" /></svg>
