<?xml version="1.0" encoding="UTF-8" standalone="no"?>
<!-- Uploaded to: SVG Repo, www.svgrepo.com, Transformed by: SVG Repo Mixer Tools -->

<svg
   height="284"
   width="473"
   version="1.1"
   id="Capa_1"
   viewBox="0 0 119.56198 71.787747"
   xml:space="preserve"
   fill="#000000"
   sodipodi:docname="backClouds.svg"
   inkscape:version="1.3.2 (091e20e, 2023-11-25, custom)"
   xmlns:inkscape="http://www.inkscape.org/namespaces/inkscape"
   xmlns:sodipodi="http://sodipodi.sourceforge.net/DTD/sodipodi-0.dtd"
   xmlns="http://www.w3.org/2000/svg"
   xmlns:svg="http://www.w3.org/2000/svg"><defs
   id="defs1" /><sodipodi:namedview
   id="namedview1"
   pagecolor="#ffffff"
   bordercolor="#000000"
   borderopacity="0.25"
   inkscape:showpageshadow="2"
   inkscape:pageopacity="0.0"
   inkscape:pagecheckerboard="0"
   inkscape:deskcolor="#d1d1d1"
   inkscape:zoom="0.88"
   inkscape:cx="17.613636"
   inkscape:cy="226.70455"
   inkscape:window-width="1600"
   inkscape:window-height="877"
   inkscape:window-x="-8"
   inkscape:window-y="-8"
   inkscape:window-maximized="1"
   inkscape:current-layer="Capa_1" />

<g
   id="SVGRepo_bgCarrier"
   stroke-width="0" />

<g
   id="SVGRepo_tracerCarrier"
   stroke-linecap="round"
   stroke-linejoin="round" />

<g
   id="SVGRepo_iconCarrier"
   transform="matrix(0.5873715,0,0,0.59885789,0.50348929,-24.644239)"> <g
   id="g1"> <path
   style="fill:#ffffff"
   d="m 202.219,95.172 c 0,-16.949 -15.275,-30.513 -32.664,-27.489 -6.181,-10.017 -18.399,-15.3 -30.12,-12.515 -4.985,-8.686 -14.119,-14.018 -24.179,-14.018 -9.87,0 -18.492,5.193 -23.449,12.984 C 85.727,50.183 78.572,47.918 71,47.918 50.393,47.918 33.54,64.259 32.724,84.852 13.961,87.582 0,103.608 0,122.758 0,143.88 17.189,161.07 38.315,161.07 h 115.289 c 21.122,0 38.312,-17.189 38.312,-38.312 0,-1.929 -0.197,-3.815 -0.476,-5.669 6.535,-5.1 10.779,-12.998 10.779,-21.917 z m -48.615,62.322 H 38.315 c -19.154,0 -34.736,-15.582 -34.736,-34.733 0,-17.844 13.367,-32.696 31.089,-34.547 l 1.593,-0.372 v -1.61 c 0,-19.154 15.582,-34.736 34.74,-34.736 13.127,0 24.988,7.297 30.957,19.039 l 0.673,1.321 1.417,-0.412 c 3.196,-0.927 6.453,-1.396 9.681,-1.396 12.615,0 24.261,6.871 30.392,17.934 l 0.651,1.167 1.299,-0.286 c 22.278,-4.914 42.27,12.279 42.27,33.895 -0.004,19.154 -15.583,34.736 -34.737,34.736 z m 37.034,-44.359 C 185.767,94.496 167.2,81.255 146.586,85.105 139.672,73.574 127.203,66.47 113.725,66.47 c -3.096,0 -6.199,0.387 -9.269,1.152 -2.509,-4.52 -5.837,-8.385 -9.738,-11.474 4.309,-6.836 11.871,-11.42 20.539,-11.42 9.19,0 17.497,5.111 21.677,13.338 l 0.673,1.321 1.424,-0.412 c 10.966,-3.192 22.668,1.854 28.058,11.578 l 0.651,1.167 1.299,-0.286 c 15.657,-3.429 29.601,8.604 29.601,23.739 0.001,7.128 -3.095,13.517 -8.002,17.962 z"
   id="path1" /> </g> </g>

</svg>
